<?xml version="1.0" encoding="UTF-8" standalone="no"?><!DOCTYPE svg PUBLIC "-//W3C//DTD SVG 1.1//EN" "http://www.w3.org/Graphics/SVG/1.1/DTD/svg11.dtd"><svg width="100%" height="100%" viewBox="0 0 1000 1000" version="1.1" xmlns="http://www.w3.org/2000/svg" xmlns:xlink="http://www.w3.org/1999/xlink" xml:space="preserve" xmlns:serif="http://www.serif.com/" style="fill-rule:evenodd;clip-rule:evenodd;stroke-linejoin:round;stroke-miterlimit:2;"><path d="M886.86106124649,613.138938753509c-0.951687727542,78.99008138612 -18.557910687101,147.749519701149 -52.818668878672,206.278314945081c-34.260758191572,58.528795243936 -81.369300704981,103.258118438487 -141.325627540232,134.187969583654c-59.956326835249,30.929851145171 -128.953687082163,46.394776717752 -206.992080740742,46.394776717752l-335.469923959134,0c-10.468565002979,0 -19.509598414645,-3.806750910175 -27.123100234994,-11.420252730521c-7.613501820349,-7.613501820349 -11.420252730522,-16.654535232017 -11.420252730522,-27.123100234996l0,-922.185407989789c0,-10.468565002979 3.806750910174,-19.509598414646 11.420252730522,-27.123100234996c7.613501820349,-7.613501820349 16.654535232015,-11.420252730521 27.123100234994,-11.420252730521l326.904734411242,0c78.990081386122,0 149.177051292465,15.464925572582 210.560909719031,46.394776717752c61.383858426565,30.929851145167 109.682010599405,75.659174339718 144.89445651852,134.187969583654c35.212445919115,58.528795243932 53.294512742445,127.28823355896 54.246200469986,206.278314945081c0.951687727544,28.550631826311 1.427531591316,66.142297064285 1.427531591316,112.774995713924c0,46.632698649639 -0.475843863773,84.224363887613 -1.427531591316,112.774995713924Zm-639.534152909328,-483.933209455947l0,742.316427484042l231.260117793105,0c95.168772754365,0 163.928211069392,-24.743880916132 206.278314945085,-74.231642748404c42.350103875692,-49.487761832268 64.476843541082,-113.250839577693 66.380218996169,-191.289233236272c0.951687727545,-28.550631826307 1.427531591316,-63.763077745421 1.427531591316,-105.637337757344c0,-41.874260011922 -0.475843863771,-77.086705931037 -1.427531591316,-105.637337757347c-1.903375455087,-77.086705931033 -25.219724779907,-140.611861744572 -69.949047974457,-190.575467440613c-44.729323194551,-49.963605696041 -114.678371169009,-74.945408544063 -209.847143923374,-74.945408544063l-224.122459836527,0Z" style="fill-rule:nonzero;"/></svg>