<?xml version="1.0" encoding="UTF-8" standalone="no"?><!DOCTYPE svg PUBLIC "-//W3C//DTD SVG 1.1//EN" "http://www.w3.org/Graphics/SVG/1.1/DTD/svg11.dtd"><svg width="100%" height="100%" viewBox="0 0 1000 1000" version="1.1" xmlns="http://www.w3.org/2000/svg" xmlns:xlink="http://www.w3.org/1999/xlink" xml:space="preserve" xmlns:serif="http://www.serif.com/" style="fill-rule:evenodd;clip-rule:evenodd;stroke-linejoin:round;stroke-miterlimit:2;"><path d="M90.189137806916,694.651536338606l290.503959672802,0c6.961968532463,0 12.974577719592,-2.531624920897 18.037827561383,-7.594874762688c5.063249841792,-5.063249841791 7.594874762687,-11.075859028919 7.594874762687,-18.037827561382l0,-34.176936432095c0,-6.961968532463 -2.531624920895,-12.974577719591 -7.594874762687,-18.037827561382c-5.063249841791,-5.063249841793 -11.07585902892,-7.59487476269 -18.037827561383,-7.59487476269l-290.503959672802,0l0,-200.314821865886l579.495263180916,0c6.961968532464,0 12.974577719591,-2.531624920895 18.037827561383,-7.594874762686c5.063249841793,-5.063249841791 7.594874762688,-11.075859028921 7.594874762688,-18.037827561384l0,-34.176936432093c0,-6.961968532463 -2.531624920895,-12.974577719593 -7.594874762688,-18.037827561384c-5.063249841792,-5.063249841793 -11.075859028919,-7.594874762688 -18.037827561383,-7.594874762688l-644.051698663762,0c-6.961968532463,0 -12.974577719592,2.531624920895 -18.037827561383,7.594874762688c-5.063249841792,5.063249841791 -7.594874762687,11.075859028921 -7.594874762687,18.037827561384l0,613.286137087027c0,6.961968532463 2.531624920895,12.974577719593 7.594874762687,18.037827561384c5.063249841791,5.063249841791 11.07585902892,7.594874762686 18.037827561383,7.594874762686l383.541175515727,0c6.961968532463,0 12.974577719592,-2.531624920895 18.037827561383,-7.594874762686c5.063249841792,-5.063249841791 7.594874762687,-11.075859028921 7.594874762687,-18.037827561384l0,-34.176936432093c0,-6.961968532465 -2.531624920895,-12.974577719593 -7.594874762687,-18.037827561384c-5.063249841791,-5.063249841793 -11.07585902892,-7.594874762688 -18.037827561383,-7.594874762688l-318.984740032881,0l0,-207.909696628574Z" style="fill-rule:nonzero;"/><path d="M761.710804320674,11.996425952582c66.455154173517,0 121.20154308789,16.297335428268 164.23916674312,48.892006284803c43.037623655231,32.594670856533 64.556435482846,81.803130256447 64.556435482846,147.62537819974c0,49.366685957471 -12.341671489368,89.556231576693 -37.025014468102,120.568636857668c-24.683342978735,31.012405280973 -57.910920065494,53.164123338813 -99.682731260275,66.455154173516l143.353261145729,249.681507823356c1.898718690672,3.797437381343 2.848078036009,7.278421647576 2.848078036009,10.442952798696c0,5.696156072016 -2.056945248229,10.601179356252 -6.170835744684,14.715069852706c-4.113890496455,4.113890496457 -9.018913780692,6.170835744684 -14.715069852708,6.170835744684l-40.822451849445,0c-17.721374446272,0 -31.328858396088,-8.544234108023 -40.822451849447,-25.63270232407l-137.657105073714,-242.08663306067l-163.289807397784,0l0,242.08663306067c0,6.961968532463 -2.531624920895,12.974577719593 -7.594874762688,18.037827561384c-5.063249841792,5.063249841791 -11.075859028919,7.594874762686 -18.037827561383,7.594874762686l-38.923733158775,0c-6.961968532462,0 -12.974577719591,-2.531624920895 -18.037827561383,-7.594874762686c-5.063249841791,-5.063249841791 -7.594874762687,-11.075859028921 -7.594874762687,-18.037827561384l0,-613.286137087027c0,-6.961968532463 2.531624920896,-12.974577719593 7.594874762687,-18.037827561384c5.063249841792,-5.063249841793 11.075859028921,-7.594874762688 18.037827561383,-7.594874762688l229.744961571302,0Zm-4.746796726679,311.389865270194c95.56884076382,0 143.353261145729,-38.290826928551 143.353261145729,-114.872480785651c0,-39.240186273886 -12.025218374256,-67.56274007641 -36.075655122767,-84.967661407567c-24.050436748511,-17.404921331159 -59.809638756165,-26.107381996741 -107.277606022963,-26.107381996741l-160.441729361777,0l0,225.947524189958l160.441729361777,0Z" style="fill-rule:nonzero;"/></svg>