<?xml version="1.0" encoding="UTF-8" standalone="no"?><!DOCTYPE svg PUBLIC "-//W3C//DTD SVG 1.1//EN" "http://www.w3.org/Graphics/SVG/1.1/DTD/svg11.dtd"><svg width="100%" height="100%" viewBox="0 0 1000 1000" version="1.1" xmlns="http://www.w3.org/2000/svg" xmlns:xlink="http://www.w3.org/1999/xlink" xml:space="preserve" xmlns:serif="http://www.serif.com/" style="fill-rule:evenodd;clip-rule:evenodd;stroke-linejoin:round;stroke-miterlimit:2;"><path d="M784.078786671777,1000c-12.371940458068,0 -22.840505461048,-3.806750910175 -31.405695008942,-11.420252730524c-8.565189547892,-7.613501820349 -17.130379095785,-18.082066823328 -25.695568643678,-31.40569500894l-463.947767177526,-698.062948153263l0,702.345542927207c0,10.468565002982 -3.806750910175,19.509598414646 -11.420252730523,27.123100234996c-7.613501820349,7.613501820349 -16.654535232014,11.420252730524 -27.123100234995,11.420252730524l-58.528795243933,0c-10.468565002981,0 -19.509598414645,-3.806750910175 -27.123100234994,-11.420252730524c-7.613501820349,-7.613501820349 -11.420252730523,-16.654535232014 -11.420252730523,-27.123100234996l0,-922.185407989789c0,-10.468565002979 3.806750910174,-19.509598414646 11.420252730523,-27.123100234992c7.613501820349,-7.613501820349 16.654535232014,-11.420252730524 27.123100234994,-11.420252730524l49.963605696041,0c12.371940458068,0 22.840505461048,3.806750910175 31.405695008941,11.420252730524c8.565189547893,7.613501820346 17.130379095785,18.082066823328 25.695568643679,31.40569500894l463.947767177526,698.062948153263l0,-702.345542927211c0,-10.468565002979 3.806750910174,-19.509598414646 11.420252730523,-27.123100234992c7.613501820349,-7.613501820349 16.654535232014,-11.420252730524 27.123100234994,-11.420252730524l58.528795243934,0c10.46856500298,0 19.509598414644,3.806750910175 27.123100234993,11.420252730524c7.613501820349,7.613501820346 11.420252730524,16.654535232014 11.420252730524,27.123100234992l0,922.185407989789c0,10.468565002982 -3.806750910175,19.509598414646 -11.420252730524,27.123100234996c-7.613501820349,7.613501820349 -16.654535232014,11.420252730524 -27.123100234993,11.420252730524l-49.963605696041,0Z" style="fill-rule:nonzero;"/></svg>