<?xml version="1.0" encoding="UTF-8" standalone="no"?><!DOCTYPE svg PUBLIC "-//W3C//DTD SVG 1.1//EN" "http://www.w3.org/Graphics/SVG/1.1/DTD/svg11.dtd"><svg width="100%" height="100%" viewBox="0 0 1000 1000" version="1.1" xmlns="http://www.w3.org/2000/svg" xmlns:xlink="http://www.w3.org/1999/xlink" xml:space="preserve" xmlns:serif="http://www.serif.com/" style="fill-rule:evenodd;clip-rule:evenodd;stroke-linejoin:round;stroke-miterlimit:2;"><path d="M499.305555555557,0.000000000004c78.703703703703,0 146.75925925926,16.666666666664 204.166666666667,49.999999999996c57.407407407408,33.333333333336 101.157407407407,78.472222222226 131.25,135.416666666668c30.092592592593,56.944444444445 46.064814814815,120.601851851854 47.916666666667,190.972222222223c1.851851851851,55.555555555555 2.777777777777,96.759259259259 2.777777777777,123.611111111113c0,26.851851851854 -0.925925925926,68.055555555555 -2.777777777777,123.611111111113c-2.777777777777,70.370370370369 -19.212962962963,134.027777777774 -49.305555555556,190.972222222223c-30.092592592592,56.944444444442 -73.611111111111,102.083333333332 -130.555555555556,135.416666666664c-56.944444444445,33.333333333332 -124.768518518519,50 -203.472222222223,50c-78.703703703704,0 -146.527777777778,-16.666666666668 -203.472222222223,-50c-56.944444444444,-33.333333333332 -100.462962962964,-78.472222222223 -130.555555555556,-135.416666666664c-30.092592592593,-56.944444444449 -46.527777777778,-120.601851851854 -49.305555555556,-190.972222222223c-0.925925925926,-27.777777777777 -1.38888888889,-68.981481481482 -1.38888888889,-123.611111111113c0,-54.629629629631 0.462962962964,-95.833333333336 1.38888888889,-123.611111111113c1.851851851851,-70.370370370369 17.824074074074,-134.027777777777 47.916666666666,-190.972222222223c30.092592592593,-56.944444444442 73.842592592593,-102.083333333332 131.25,-135.416666666668c57.407407407409,-33.333333333332 125.462962962964,-49.999999999996 204.166666666668,-49.999999999996Zm0,125c-74.074074074075,0 -133.796296296297,21.759259259255 -179.166666666667,65.277777777777c-45.37037037037,43.518518518518 -69.444444444445,107.870370370369 -72.222222222223,193.055555555555c-0.925925925926,27.777777777777 -1.38888888889,66.666666666668 -1.38888888889,116.666666666668c0,50 0.462962962964,88.888888888891 1.38888888889,116.666666666668c2.777777777777,85.185185185182 26.851851851852,149.537037037036 72.222222222223,193.055555555555c45.37037037037,43.518518518518 105.092592592592,65.277777777777 179.166666666667,65.277777777777c74.074074074074,0 133.796296296297,-21.759259259259 179.166666666667,-65.277777777777c45.37037037037,-43.518518518518 69.444444444444,-107.870370370372 72.222222222222,-193.055555555555c1.851851851852,-55.555555555555 2.777777777778,-94.444444444449 2.777777777778,-116.666666666668c0,-22.222222222223 -0.925925925926,-61.111111111113 -2.777777777778,-116.666666666668c-2.777777777777,-85.185185185186 -26.851851851851,-149.537037037036 -72.222222222222,-193.055555555555c-45.37037037037,-43.518518518522 -105.092592592593,-65.277777777777 -179.166666666667,-65.277777777777Z" style="fill-rule:nonzero;"/></svg>