<?xml version="1.0" encoding="UTF-8" standalone="no"?><!DOCTYPE svg PUBLIC "-//W3C//DTD SVG 1.1//EN" "http://www.w3.org/Graphics/SVG/1.1/DTD/svg11.dtd"><svg width="100%" height="100%" viewBox="0 0 1000 1000" version="1.1" xmlns="http://www.w3.org/2000/svg" xmlns:xlink="http://www.w3.org/1999/xlink" xml:space="preserve" xmlns:serif="http://www.serif.com/" style="fill-rule:evenodd;clip-rule:evenodd;stroke-linejoin:round;stroke-miterlimit:2;"><path d="M726.123595505618,823.033707865172l143.258426966292,-776.685393258427c2.808988764045,-13.108614232213 8.192883895132,-22.705992509367 16.151685393259,-28.792134831459c7.958801498127,-6.086142322099 17.088014981273,-9.129213483149 27.387640449439,-9.129213483149l56.179775280899,0c8.426966292135,0 15.683520599251,3.04307116105 21.769662921348,9.129213483149c6.086142322098,6.086142322092 9.129213483146,13.34269662921 9.129213483146,21.769662921346l-1.404494382022,11.235955056178l-172.752808988764,867.97752808989c-5.617977528091,25.280898876401 -13.10861423221,43.7734082397 -22.47191011236,55.477528089887c-9.36329588015,11.704119850187 -24.812734082397,17.556179775282 -46.348314606742,17.556179775282l-56.179775280899,0c-20.59925093633,0 -36.048689138577,-6.320224719104 -46.348314606741,-18.960674157301c-10.299625468165,-12.640449438204 -18.7265917603,-30.664794007494 -25.280898876405,-54.073033707868l-129.213483146067,-469.101123595505l-129.213483146068,469.101123595505c-6.554307116105,23.408239700373 -14.98127340824,41.432584269663 -25.280898876405,54.073033707868c-10.299625468165,12.640449438197 -25.749063670412,18.960674157301 -46.348314606741,18.960674157301l-56.1797752809,0c-21.535580524344,0 -36.985018726591,-5.852059925095 -46.348314606741,-17.556179775282c-9.36329588015,-11.704119850187 -16.853932584269,-30.196629213486 -22.47191011236,-55.477528089887l-172.752808988764,-867.97752808989l-1.404494382023,-11.235955056178c0,-8.426966292136 3.043071161048,-15.683520599254 9.129213483146,-21.769662921346c6.086142322098,-6.086142322099 13.342696629215,-9.129213483149 21.769662921349,-9.129213483149l56.179775280899,0c10.299625468165,0 19.42883895131,3.04307116105 27.387640449438,9.129213483149c7.958801498128,6.086142322092 13.342696629215,15.683520599247 16.151685393259,28.792134831459l143.258426966292,776.685393258427l154.494382022473,-556.1797752809c1.87265917603,-9.36329588015 6.554307116105,-18.492509363299 14.044943820225,-27.387640449437c7.490636704119,-8.895131086145 18.726591760299,-13.342696629217 33.707865168539,-13.342696629217l47.752808988765,0c14.98127340824,0 26.217228464419,4.447565543072 33.707865168539,13.342696629217c7.49063670412,8.895131086138 12.172284644194,18.024344569287 14.044943820225,27.387640449437l154.494382022472,556.1797752809Z" style="fill-rule:nonzero;"/></svg>